# xmcd CD database file
#
# Track frame offsets:
#	187
#	11025
#	23662
#	34462
#	45262
#	59587
#	76087
#	86662
#	98187
#	109012
#	119337
#	134287
#
# Disc length: 1948 seconds
#
# Revision: 2
# Processed by: cddbd v1.5.2PL0 Copyright (c) Steve Scherf et al.
# Submitted via: CDex 1.51
#
DISCID=93079a0c
DTITLE=Rory Block - High Heeled Blues
DYEAR=1989
DGENRE=Blues
TTITLE0=Walkin' Blues
TTITLE1=Travelin' Blues
TTITLE2=Got to Have You Be My Man
TTITLE3=Devil Got My Man
TTITLE4=Down in the Dumps
TTITLE5=The Water is Wide
TTITLE6=Since You Been Gone
TTITLE7=Crossroad Blues
TTITLE8=Achin' Heart
TTITLE9=Hilarity Rag
TTITLE10=Kind Hearted Man
TTITLE11=Uncloudy Day
EXTD=YEAR: 1989
EXTT0=
EXTT1=
EXTT2=
EXTT3=
EXTT4=
EXTT5=
EXTT6=
EXTT7=
EXTT8=
EXTT9=
EXTT10=
EXTT11=
PLAYORDER=
